<?xml version="1.0" standalone="no"?>
<!DOCTYPE svg PUBLIC "-//W3C//DTD SVG 20010904//EN"
 "http://www.w3.org/TR/2001/REC-SVG-20010904/DTD/svg10.dtd">
<svg version="1.0" xmlns="http://www.w3.org/2000/svg"
 width="700.000000pt" height="700.000000pt" viewBox="0 0 700.000000 700.000000"
 preserveAspectRatio="xMidYMid meet">
<metadata>
Created by potrace 1.14, written by Peter Selinger 2001-2017
</metadata>
<g transform="translate(0.000000,700.000000) scale(0.100000,-0.100000)"
fill="#000000" stroke="none">
<path d="M3510 6124 c-14 -2 -52 -9 -85 -15 -267 -46 -529 -229 -576 -402 -18
-67 -12 -160 14 -225 22 -55 22 -61 10 -157 -27 -219 -100 -508 -214 -850
-127 -380 -222 -599 -509 -1180 -234 -472 -380 -725 -423 -733 -25 -5 -45 49
-62 166 -24 172 -50 677 -65 1277 -27 1133 -67 1528 -172 1713 -134 236 -486
338 -838 241 -166 -45 -352 -157 -461 -277 -89 -99 -123 -164 -127 -243 -7
-122 37 -204 204 -379 174 -182 188 -231 186 -625 0 -148 -9 -598 -18 -1000
-9 -401 -17 -935 -18 -1185 -1 -431 0 -461 21 -571 56 -293 169 -480 324 -534
23 -9 96 -21 161 -27 317 -32 634 70 993 320 336 235 562 565 1040 1522 121
243 170 324 187 314 23 -14 -7 -349 -72 -811 -17 -116 -37 -230 -45 -252 -25
-73 -64 -264 -75 -376 -41 -401 108 -651 440 -742 51 -14 102 -18 240 -18 197
1 301 18 489 81 443 147 951 544 1278 999 189 263 527 877 971 1765 468 935
574 1176 654 1480 38 148 49 335 24 422 -51 175 -188 250 -461 251 -140 0
-253 -21 -385 -70 -153 -58 -329 -170 -416 -264 -104 -114 -246 -447 -534
-1250 -72 -200 -158 -440 -192 -534 -34 -93 -124 -314 -201 -490 -334 -763
-508 -1105 -563 -1105 -39 0 -64 153 -64 395 0 88 9 363 20 610 31 720 43
1257 37 1595 -6 335 -18 455 -61 636 -66 273 -198 460 -359 509 -51 16 -247
28 -297 19z"/>
</g>
</svg>
