<svg width="12" height="11" viewBox="0 0 12 11" fill="none" xmlns="http://www.w3.org/2000/svg">
  <path
    d="M11.3404 4.18174C11.248 4.03363 11.1702 3.8769 11.1081 3.71377C11.0595 3.53736 11.028 3.35665 11.0142 3.17417C10.9731 2.81315 10.9266 2.40373 10.6803 2.06546C10.434 1.72718 10.0555 1.55345 9.72356 1.40343C9.55624 1.33475 9.39581 1.25032 9.24446 1.15129C9.10582 1.03927 8.97813 0.914334 8.86311 0.778173C8.61679 0.506681 8.33755 0.197442 7.93056 0.0667776C7.53905 -0.0600153 7.13883 0.021287 6.78555 0.0933944C6.60343 0.137167 6.41757 0.16358 6.23047 0.172277C6.04352 0.163578 5.85783 0.137166 5.67587 0.0933944C5.32259 0.0208031 4.92237 -0.0604992 4.53086 0.0662936C4.12387 0.19841 3.84415 0.506197 3.59782 0.777689C3.48306 0.913939 3.35534 1.03874 3.21648 1.15032C3.06527 1.24988 2.90483 1.33464 2.73738 1.40343C2.40539 1.55393 2.02937 1.72428 1.78111 2.06594C1.53284 2.40761 1.48832 2.81363 1.44719 3.17465C1.43292 3.35707 1.40149 3.53774 1.3533 3.71425C1.29099 3.8773 1.21321 4.03401 1.12101 4.18222C0.93808 4.50066 0.730469 4.8641 0.730469 5.29868C0.730469 5.73326 0.93808 6.09767 1.12101 6.41562C1.21321 6.56383 1.29099 6.72054 1.3533 6.88359C1.40149 7.0601 1.43292 7.24077 1.44719 7.42318C1.48784 7.78469 1.53478 8.19362 1.78062 8.53189C2.02647 8.87017 2.40539 9.04391 2.73738 9.1949C2.90481 9.26353 3.06525 9.34813 3.21648 9.44751C3.35523 9.55923 3.48293 9.68401 3.59782 9.82015C3.84415 10.0916 4.12387 10.4009 4.53038 10.5315C4.92237 10.6583 5.32259 10.577 5.67587 10.5054C5.85778 10.4614 6.0435 10.435 6.23047 10.4265C6.41759 10.435 6.60347 10.4614 6.78555 10.5054C7.0143 10.5597 7.24793 10.5908 7.48291 10.5983C7.63469 10.6 7.78578 10.5776 7.93056 10.532C8.33755 10.3999 8.61679 10.0921 8.86311 9.82063C8.978 9.6845 9.10571 9.55971 9.24446 9.448C9.39568 9.34861 9.55612 9.26402 9.72356 9.19538C10.0555 9.04487 10.4321 8.87453 10.6803 8.53286C10.9286 8.1912 10.9731 7.78566 11.0142 7.42463C11.028 7.242 11.0594 7.06112 11.1081 6.88455C11.1702 6.72142 11.248 6.56469 11.3404 6.41658C11.5233 6.09718 11.7305 5.73471 11.7305 5.29964C11.7305 4.86458 11.5224 4.50066 11.3404 4.18174ZM8.50838 4.26449L5.86025 6.91504C5.78315 6.99188 5.67874 7.03502 5.56989 7.03502C5.46104 7.03502 5.35662 6.99188 5.27952 6.91504L3.95255 5.59098C3.88286 5.51256 3.84577 5.41048 3.84886 5.30562C3.85194 5.20076 3.89498 5.10104 3.96916 5.02685C4.04334 4.95267 4.14306 4.90964 4.24793 4.90655C4.35279 4.90346 4.45487 4.94056 4.53328 5.01025L5.56602 6.04298L7.92668 3.68279C8.0051 3.6131 8.10718 3.57601 8.21204 3.5791C8.31691 3.58218 8.41663 3.62522 8.49081 3.6994C8.56499 3.77358 8.60803 3.8733 8.61111 3.97817C8.6142 4.08303 8.5771 4.18511 8.50742 4.26352L8.50838 4.26449Z"
    fill="#005055"
  />
</svg>