<svg width="110" height="34" viewBox="0 0 110 34" fill="none" xmlns="http://www.w3.org/2000/svg">
<g clip-path="url(#clip0_2562_168658)">
<path fill-rule="evenodd" clip-rule="evenodd" d="M36.4013 3.40762C37.6925 2.0682 40.4736 0.728775 43.056 1.4729C45.5337 2.18686 44.2626 5.7323 43.673 7.37685L43.672 7.37952C43.6475 7.448 43.6241 7.51318 43.6022 7.57471C43.056 9.11256 36.898 21.7626 34.1666 25.7809C31.4352 29.7992 27.7106 31.7835 26.0718 32.3788C24.4329 32.9741 21.0063 33.7182 19.2185 31.7339C17.4307 29.7496 18.9702 25.4833 18.9702 25.4833C18.9702 25.4833 19.9138 19.3815 19.6158 18.9846C19.4755 18.8094 18.9572 19.8471 18.1946 21.3743C16.798 24.171 14.5816 28.6092 12.3652 30.2456C8.93859 32.8253 6.70382 32.9245 4.81669 32.6268C2.92956 32.3292 2.2343 29.6504 2.2343 26.9219C2.2343 25.265 2.34419 20.2783 2.4305 16.3616L2.4305 16.3616L2.4305 16.3614L2.4305 16.3612C2.48631 13.8286 2.53226 11.7434 2.53226 11.2953C2.53226 10.1543 2.53226 9.06295 1.83701 8.21961C1.71699 8.0826 1.56737 7.93227 1.40553 7.76967C0.629834 6.99031 -0.426724 5.92877 0.148518 4.69743C0.893439 3.20918 2.97922 1.77055 5.46229 1.77055C5.46229 1.77055 8.49163 1.62172 9.33588 4.15174C9.95771 6.01524 10.0676 11.1352 10.1419 14.5956C10.1685 15.8333 10.1905 16.8586 10.2298 17.4467C10.2635 17.9521 10.2896 18.549 10.3167 19.1689V19.1689C10.4093 21.2874 10.5137 23.6749 10.9747 23.5982C11.5706 23.4989 14.7986 16.7026 15.6429 14.8175C16.4871 12.9324 18.1756 8.17 18.3743 5.34234C18.3743 5.34234 17.3314 3.80448 18.9702 2.36585C20.609 0.927207 22.8438 0.778383 24.0357 1.02642C25.5752 1.37368 26.618 3.40762 26.8167 6.63215C27.0153 9.85668 26.6677 17.546 26.5684 19.6791C26.4691 21.8123 26.3697 24.7887 26.916 24.888C27.409 24.97 29.4989 20.1983 30.6282 17.62L30.6282 17.6199L30.6282 17.6199C30.8642 17.0812 31.0582 16.6383 31.1869 16.3554C31.4171 15.8494 31.8798 14.5472 32.4474 12.9499L32.4476 12.9493L32.4477 12.9491C33.7165 9.3784 35.5093 4.33299 36.4013 3.40762ZM91.1288 22.8528C92.0723 21.4638 93.0656 21.8111 93.2642 21.9103C93.4629 22.0095 95.9956 23.6466 91.4764 28.4586C86.9572 33.3202 81.5938 33.0225 81.5938 33.0225C78.3658 32.9729 76.28 31.5343 74.8895 29.6988C72.4064 31.8815 68.5825 33.6178 63.0701 32.8241C60.9843 32.5264 59.4448 31.6831 58.3026 30.5421C55.2733 32.5761 50.903 33.9155 45.2913 32.2784C40.4245 30.8398 39.1333 26.7223 39.1333 23.4978C39.1333 20.2732 41.4674 16.2053 44.1988 14.8163C47.0421 13.5491 48.8065 13.7445 49.6958 13.843C49.8161 13.8563 49.9204 13.8678 50.0091 13.8738C50.0091 13.8738 55.2733 14.4691 55.2733 19.2314C55.2733 23.9938 49.0159 25.9286 46.9798 25.9286C46.9798 25.9286 48.1717 29.9964 56.0678 26.9207C55.8692 26.2758 55.7202 25.6309 55.6209 24.986C55.1243 21.8111 56.8128 17.4456 59.3951 15.7589C62.0658 14.0248 63.8588 13.9645 64.7383 13.9349C64.8401 13.9315 64.9296 13.9285 65.0069 13.9234C65.0069 13.9234 70.3206 13.7249 71.0159 18.4377C71.7112 23.1505 66.0994 26.375 64.113 26.6727C64.113 26.6727 65.3545 30.4925 73.052 25.6805C72.4064 22.6048 73.499 18.4873 75.6841 16.5526C78.0854 14.5092 79.8497 14.216 80.7272 14.0702L80.7273 14.0702L80.7275 14.0701C80.8298 14.0531 80.9201 14.0381 80.9978 14.0226C80.9978 14.0226 86.2123 13.1296 87.5531 17.6936C88.894 22.2575 83.183 26.4742 81.2462 27.0199C81.2462 27.0199 82.6367 29.1531 85.2687 27.9625C88.0498 26.7223 90.1852 24.2419 91.1288 22.8528ZM46.9798 18.1897C45.7383 19.3307 45.3906 21.0669 45.9369 21.7615C46.8308 23.0017 48.9166 21.1662 48.9166 21.1662C51.4493 18.6858 49.9595 15.5108 46.9798 18.1897ZM62.5735 18.6858C61.5306 19.9756 61.4313 21.7119 62.0769 22.3568C63.1694 23.3985 64.9572 21.315 64.9076 21.3646C67.0927 18.5369 65.1062 15.61 62.5735 18.6858ZM79.21 19.033C78.3161 20.4717 78.5148 22.2079 79.21 22.7536C80.4516 23.6962 81.8917 21.3646 81.8917 21.3646C83.6796 18.2393 81.2958 15.61 79.21 19.033ZM107.269 1.37279C102.154 -0.760364 98.7274 7.32577 98.7274 7.32577C94.6688 18.37 95.825 20.7031 96.5565 22.1791C96.6037 22.2743 96.6491 22.366 96.6913 22.4563C97.3865 23.9445 101.459 26.3257 102.353 21.6625C103.197 17.049 107.865 9.35971 108.411 8.46676C108.46 8.38668 108.533 8.28108 108.62 8.15362C109.504 6.85979 111.926 3.31465 107.269 1.37279ZM95.1517 30.8892C94.4068 28.7064 95.1517 25.5811 98.1314 25.978C98.1314 25.978 100.962 26.2756 101.558 28.9545C102.055 31.5341 99.7702 32.7743 98.8267 33.0223C97.8831 33.2704 95.8967 33.072 95.1517 30.8892Z" fill="#111111"/>
</g>
<defs>
<clipPath id="clip0_2562_168658">
<rect width="110" height="32.1461" fill="white" transform="translate(0 0.926758)"/>
</clipPath>
</defs>
</svg>
